  0
SECTION
  2
HEADER
  9
$ACADVER
  1
AC1009
  9
$INSBASE
 10
0.0
 20
0.0
 30
0.0
  9
$EXTMIN
 10
2.455689
 20
1.694444
 30
-1.297345
  9
$EXTMAX
 10
5.05038
 20
8.324074
 30
1.297345
  9
$LIMMIN
 10
0.0
 20
0.0
  9
$LIMMAX
 10
12.0
 20
9.0
  9
$ORTHOMODE
 70
     0
  9
$REGENMODE
 70
     1
  9
$FILLMODE
 70
     1
  9
$QTEXTMODE
 70
     0
  9
$MIRRTEXT
 70
     1
  9
$DRAGMODE
 70
     2
  9
$LTSCALE
 40
1.0
  9
$OSMODE
 70
     0
  9
$ATTMODE
 70
     1
  9
$TEXTSIZE
 40
0.2
  9
$TRACEWID
 40
0.05
  9
$TEXTSTYLE
  7
STANDARD
  9
$CLAYER
  8
0
  9
$CELTYPE
  6
BYLAYER
  9
$CECOLOR
 62
   256
  9
$DIMSCALE
 40
1.0
  9
$DIMASZ
 40
0.18
  9
$DIMEXO
 40
0.0625
  9
$DIMDLI
 40
0.38
  9
$DIMRND
 40
0.0
  9
$DIMDLE
 40
0.0
  9
$DIMEXE
 40
0.18
  9
$DIMTP
 40
0.0
  9
$DIMTM
 40
0.0
  9
$DIMTXT
 40
0.18
  9
$DIMCEN
 40
0.09
  9
$DIMTSZ
 40
0.0
  9
$DIMTOL
 70
     0
  9
$DIMLIM
 70
     0
  9
$DIMTIH
 70
     1
  9
$DIMTOH
 70
     1
  9
$DIMSE1
 70
     0
  9
$DIMSE2
 70
     0
  9
$DIMTAD
 70
     0
  9
$DIMZIN
 70
     0
  9
$DIMBLK
  1

  9
$DIMASO
 70
     1
  9
$DIMSHO
 70
     1
  9
$DIMPOST
  1

  9
$DIMAPOST
  1

  9
$DIMALT
 70
     0
  9
$DIMALTD
 70
     2
  9
$DIMALTF
 40
25.4
  9
$DIMLFAC
 40
1.0
  9
$DIMTOFL
 70
     0
  9
$DIMTVP
 40
0.0
  9
$DIMTIX
 70
     0
  9
$DIMSOXD
 70
     0
  9
$DIMSAH
 70
     0
  9
$DIMBLK1
  1

  9
$DIMBLK2
  1

  9
$DIMSTYLE
  2
*UNNAMED
  9
$DIMCLRD
 70
     0
  9
$DIMCLRE
 70
     0
  9
$DIMCLRT
 70
     0
  9
$DIMTFAC
 40
1.0
  9
$DIMGAP
 40
0.09
  9
$LUNITS
 70
     2
  9
$LUPREC
 70
     4
  9
$SKETCHINC
 40
0.1
  9
$FILLETRAD
 40
0.0
  9
$AUNITS
 70
     0
  9
$AUPREC
 70
     0
  9
$MENU
  1
acad
  9
$ELEVATION
 40
0.0
  9
$PELEVATION
 40
0.0
  9
$THICKNESS
 40
0.0
  9
$LIMCHECK
 70
     0
  9
$BLIPMODE
 70
     1
  9
$CHAMFERA
 40
0.0
  9
$CHAMFERB
 40
0.0
  9
$SKPOLY
 70
     0
  9
$TDCREATE
 40
2449064.612448379
  9
$TDUPDATE
 40
2449064.612448379
  9
$TDINDWG
 40
0.0000000000
  9
$TDUSRTIMER
 40
0.0000000000
  9
$USRTIMER
 70
     1
  9
$ANGBASE
 50
0.0
  9
$ANGDIR
 70
     0
  9
$PDMODE
 70
     0
  9
$PDSIZE
 40
0.0
  9
$PLINEWID
 40
0.0
  9
$COORDS
 70
     1
  9
$SPLFRAME
 70
     0
  9
$SPLINETYPE
 70
     6
  9
$SPLINESEGS
 70
     8
  9
$ATTDIA
 70
     0
  9
$ATTREQ
 70
     1
  9
$HANDLING
 70
     1
  9
$HANDSEED
  5
35F
  9
$SURFTAB1
 70
    40
  9
$SURFTAB2
 70
    40
  9
$SURFTYPE
 70
     6
  9
$SURFU
 70
     6
  9
$SURFV
 70
     6
  9
$UCSNAME
  2

  9
$UCSORG
 10
0.0
 20
0.0
 30
0.0
  9
$UCSXDIR
 10
1.0
 20
0.0
 30
0.0
  9
$UCSYDIR
 10
0.0
 20
1.0
 30
0.0
  9
$PUCSNAME
  2

  9
$PUCSORG
 10
0.0
 20
0.0
 30
0.0
  9
$PUCSXDIR
 10
1.0
 20
0.0
 30
0.0
  9
$PUCSYDIR
 10
0.0
 20
1.0
 30
0.0
  9
$USERI1
 70
     0
  9
$USERI2
 70
     0
  9
$USERI3
 70
     0
  9
$USERI4
 70
     0
  9
$USERI5
 70
     0
  9
$USERR1
 40
0.0
  9
$USERR2
 40
0.0
  9
$USERR3
 40
0.0
  9
$USERR4
 40
0.0
  9
$USERR5
 40
0.0
  9
$WORLDVIEW
 70
     1
  9
$SHADEDGE
 70
     3
  9
$SHADEDIF
 70
    70
  9
$TILEMODE
 70
     1
  9
$MAXACTVP
 70
    16
  9
$PINSBASE
 10
0.0
 20
0.0
 30
0.0
  9
$PLIMCHECK
 70
     0
  9
$PEXTMIN
 10
1.000000E+20
 20
1.000000E+20
 30
1.000000E+20
  9
$PEXTMAX
 10
-1.000000E+20
 20
-1.000000E+20
 30
-1.000000E+20
  9
$PLIMMIN
 10
0.0
 20
0.0
  9
$PLIMMAX
 10
12.0
 20
9.0
  9
$UNITMODE
 70
     0
  9
$VISRETAIN
 70
     0
  9
$PLINEGEN
 70
     0
  9
$PSLTSCALE
 70
     1
  9
$TREEDEPTH
 70
  3020
  9
$DWGCODEPAGE
  3
iso8859-1
  0
ENDSEC
  0
SECTION
  2
TABLES
  0
TABLE
  2
VPORT
 70
     3
  0
VPORT
  2
*ACTIVE
 70
     0
 10
0.0
 20
0.0
 11
1.0
 21
1.0
 12
-6.234485
 22
-0.028156
 13
0.0
 23
0.0
 14
1.0
 24
1.0
 15
0.0
 25
0.0
 16
-3.430758
 26
3.082305
 36
0.987983
 17
0.0
 27
0.0
 37
0.0
 40
4.046133
 41
1.647423
 42
50.0
 43
0.0
 44
0.0
 50
0.0
 51
0.0
 71
     0
 72
   100
 73
     1
 74
     1
 75
     0
 76
     0
 77
     0
 78
     0
  0
ENDTAB
  0
TABLE
  2
LTYPE
 70
     1
  0
LTYPE
  2
CONTINUOUS
 70
    64
  3
Solid line
 72
    65
 73
     0
 40
0.0
  0
ENDTAB
  0
TABLE
  2
LAYER
 70
     2
  0
LAYER
  2
0
 70
     0
 62
     7
  6
CONTINUOUS
  0
LAYER
  2
ASHADE
 70
    64
 62
     7
  6
CONTINUOUS
  0
ENDTAB
  0
TABLE
  2
STYLE
 70
     2
  0
STYLE
  2
STANDARD
 70
     0
 40
0.0
 41
1.0
 50
0.0
 71
     0
 42
0.2
  3
txt
  4

  0
STYLE
  2
ASHADE
 70
    64
 40
0.2
 41
1.0
 50
0.0
 71
     0
 42
0.2
  3
simplex
  4

  0
ENDTAB
  0
TABLE
  2
VIEW
 70
     0
  0
ENDTAB
  0
TABLE
  2
UCS
 70
     0
  0
ENDTAB
  0
TABLE
  2
APPID
 70
     3
  0
APPID
  2
ACAD
 70
    64
  0
APPID
  2
AVE_RENDER
 70
     0
  0
APPID
  2
AVE_FINISH
 70
     0
  0
ENDTAB
  0
TABLE
  2
DIMSTYLE
 70
     0
  0
ENDTAB
  0
ENDSEC
  0
SECTION
  2
BLOCKS
  0
BLOCK
  8
ASHADE
  5
35D
  2
AVE_RENDER
 70
    64
 10
0.0
 20
0.0
 30
0.0
  1
AVE_RENDER
  0
ENDBLK
  8
0
  5
35E
  0
ENDSEC
  0
SECTION
  2
ENTITIES
  0
POLYLINE
  8
0
  5
2
 66
     1
 10
0.0
 20
0.0
 30
0.0
  0
VERTEX
  8
0
  5
3
 10
3.753035
 20
5.972222
 30
0.0
  0
VERTEX
  8
0
  5
4
 10
4.142238
 20
5.990741
 30
0.0
  0
VERTEX
  8
0
  5
5
 10
4.271973
 20
6.027778
 30
0.0
  0
VERTEX
  8
0
  5
6
 10
4.438774
 20
6.101852
 30
0.0
  0
VERTEX
  8
0
  5
7
 10
4.587042
 20
6.25
 30
0.0
  0
VERTEX
  8
0
  5
8
 10
4.67971
 20
6.37963
 30
0.0
  0
VERTEX
  8
0
  5
9
 10
4.735311
 20
6.62037
 30
0.0
  0
VERTEX
  8
0
  5
A
 10
4.772378
 20
6.861111
 30
0.0
  0
VERTEX
  8
0
  5
B
 10
5.05038
 20
8.324074
 30
0.0
  0
VERTEX
  8
0
  5
C
 10
4.902112
 20
6.861111
 30
0.0
  0
VERTEX
  8
0
  5
D
 10
4.846512
 20
6.416667
 30
0.0
  0
VERTEX
  8
0
  5
E
 10
4.661177
 20
5.972222
 30
0.0
  0
VERTEX
  8
0
  5
F
 10
4.420241
 20
5.638889
 30
0.0
  0
VERTEX
  8
0
  5
10
 10
4.105171
 20
5.342593
 30
0.0
  0
VERTEX
  8
0
  5
11
 10
3.956903
 20
4.842593
 30
0.0
  0
VERTEX
  8
0
  5
12
 10
3.827169
 20
1.842593
 30
0.0
  0
VERTEX
  8
0
  5
13
 10
5.031847
 20
1.694444
 30
0.0
  0
VERTEX
  8
0
  5
14
 10
3.753035
 20
1.712963
 30
0.0
  0
SEQEND
  8
0
  5
15
  0
POLYLINE
  8
0
  5
84
 66
     1
 10
0.0
 20
0.0
 30
0.0
 70
    17
 71
    40
 72
    18
  0
VERTEX
  8
0
  5
85
 10
3.753035
 20
5.972222
 30
0.0
 70
    64
  0
VERTEX
  8
0
  5
86
 10
4.142238
 20
5.990741
 30
0.0
 70
    64
  0
VERTEX
  8
0
  5
87
 10
4.271973
 20
6.027778
 30
0.0
 70
    64
  0
VERTEX
  8
0
  5
88
 10
4.438774
 20
6.101852
 30
0.0
 70
    64
  0
VERTEX
  8
0
  5
89
 10
4.587042
 20
6.25
 30
0.0
 70
    64
  0
VERTEX
  8
0
  5
8A
 10
4.67971
 20
6.37963
 30
0.0
 70
    64
  0
VERTEX
  8
0
  5
8B
 10
4.735311
 20
6.62037
 30
0.0
 70
    64
  0
VERTEX
  8
0
  5
8C
 10
4.772378
 20
6.861111
 30
0.0
 70
    64
  0
VERTEX
  8
0
  5
8D
 10
5.05038
 20
8.324074
 30
0.0
 70
    64
  0
VERTEX
  8
0
  5
8E
 10
4.902112
 20
6.861111
 30
0.0
 70
    64
  0
VERTEX
  8
0
  5
8F
 10
4.846512
 20
6.416667
 30
0.0
 70
    64
  0
VERTEX
  8
0
  5
90
 10
4.661177
 20
5.972222
 30
0.0
 70
    64
  0
VERTEX
  8
0
  5
91
 10
4.420241
 20
5.638889
 30
0.0
 70
    64
  0
VERTEX
  8
0
  5
92
 10
4.105171
 20
5.342593
 30
0.0
 70
    64
  0
VERTEX
  8
0
  5
93
 10
3.956903
 20
4.842593
 30
0.0
 70
    64
  0
VERTEX
  8
0
  5
94
 10
3.827169
 20
1.842593
 30
0.0
 70
    64
  0
VERTEX
  8
0
  5
95
 10
5.031847
 20
1.694444
 30
0.0
 70
    64
  0
VERTEX
  8
0
  5
96
 10
3.753035
 20
1.712963
 30
0.0
 70
    64
  0
VERTEX
  8
0
  5
97
 10
3.753035
 20
5.972222
 30
0.0
 70
    64
  0
VERTEX
  8
0
  5
98
 10
4.137447
 20
5.990741
 30
0.060885
 70
    64
  0
VERTEX
  8
0
  5
99
 10
4.265584
 20
6.027778
 30
0.08118
 70
    64
  0
VERTEX
  8
0
  5
9A
 10
4.430332
 20
6.101852
 30
0.107273
 70
    64
  0
VERTEX
  8
0
  5
9B
 10
4.576774
 20
6.25
 30
0.130468
 70
    64
  0
VERTEX
  8
0
  5
9C
 10
4.668301
 20
6.37963
 30
0.144964
 70
    64
  0
VERTEX
  8
0
  5
9D
 10
4.723217
 20
6.62037
 30
0.153662
 70
    64
  0
VERTEX
  8
0
  5
9E
 10
4.759828
 20
6.861111
 30
0.15946
 70
    64
  0
VERTEX
  8
0
  5
9F
 10
5.034408
 20
8.324074
 30
0.20295
 70
    64
  0
VERTEX
  8
0
  5
A0
 10
4.887965
 20
6.861111
 30
0.179755
 70
    64
  0
VERTEX
  8
0
  5
A1
 10
4.833049
 20
6.416667
 30
0.171057
 70
    64
  0
VERTEX
  8
0
  5
A2
 10
4.649996
 20
5.972222
 30
0.142065
 70
    64
  0
VERTEX
  8
0
  5
A3
 10
4.412027
 20
5.638889
 30
0.104374
 70
    64
  0
VERTEX
  8
0
  5
A4
 10
4.100836
 20
5.342593
 30
0.055086
 70
    64
  0
VERTEX
  8
0
  5
A5
 10
3.954393
 20
4.842593
 30
0.031892
 70
    64
  0
VERTEX
  8
0
  5
A6
 10
3.826256
 20
1.842593
 30
0.011597
 70
    64
  0
VERTEX
  8
0
  5
A7
 10
5.016102
 20
1.694444
 30
0.20005
 70
    64
  0
VERTEX
  8
0
  5
A8
 10
3.753035
 20
1.712963
 30
0.0
 70
    64
  0
VERTEX
  8
0
  5
A9
 10
3.753035
 20
5.972222
 30
0.0
 70
    64
  0
VERTEX
  8
0
  5
AA
 10
4.123189
 20
5.990741
 30
0.120271
 70
    64
  0
VERTEX
  8
0
  5
AB
 10
4.246574
 20
6.027778
 30
0.160361
 70
    64
  0
VERTEX
  8
0
  5
AC
 10
4.405212
 20
6.101852
 30
0.211905
 70
    64
  0
VERTEX
  8
0
  5
AD
 10
4.546223
 20
6.25
 30
0.257723
 70
    64
  0
VERTEX
  8
0
  5
AE
 10
4.634355
 20
6.37963
 30
0.286358
 70
    64
  0
VERTEX
  8
0
  5
AF
 10
4.687235
 20
6.62037
 30
0.30354
 70
    64
  0
VERTEX
  8
0
  5
B0
 10
4.722487
 20
6.861111
 30
0.314994
 70
    64
  0
VERTEX
  8
0
  5
B1
 10
4.986884
 20
8.324074
 30
0.400902
 70
    64
  0
VERTEX
  8
0
  5
B2
 10
4.845872
 20
6.861111
 30
0.355084
 70
    64
  0
VERTEX
  8
0
  5
B3
 10
4.792993
 20
6.416667
 30
0.337903
 70
    64
  0
VERTEX
  8
0
  5
B4
 10
4.616729
 20
5.972222
 30
0.280631
 70
    64
  0
VERTEX
  8
0
  5
B5
 10
4.387586
 20
5.638889
 30
0.206178
 70
    64
  0
VERTEX
  8
0
  5
B6
 10
4.087937
 20
5.342593
 30
0.108816
 70
    64
  0
VERTEX
  8
0
  5
B7
 10
3.946925
 20
4.842593
 30
0.062999
 70
    64
  0
VERTEX
  8
0
  5
B8
 10
3.82354
 20
1.842593
 30
0.022909
 70
    64
  0
VERTEX
  8
0
  5
B9
 10
4.969257
 20
1.694444
 30
0.395175
 70
    64
  0
VERTEX
  8
0
  5
BA
 10
3.753035
 20
1.712963
 30
0.0
 70
    64
  0
VERTEX
  8
0
  5
BB
 10
3.753035
 20
5.972222
 30
0.0
 70
    64
  0
VERTEX
  8
0
  5
BC
 10
4.099818
 20
5.990741
 30
0.176695
 70
    64
  0
VERTEX
  8
0
  5
BD
 10
4.215412
 20
6.027778
 30
0.235593
 70
    64
  0
VERTEX
  8
0
  5
BE
 10
4.364033
 20
6.101852
 30
0.311319
 70
    64
  0
VERTEX
  8
0
  5
BF
 10
4.496141
 20
6.25
 30
0.378632
 70
    64
  0
VERTEX
  8
0
  5
C0
 10
4.578709
 20
6.37963
 30
0.420702
 70
    64
  0
VERTEX
  8
0
  5
C1
 10
4.628249
 20
6.62037
 30
0.445944
 70
    64
  0
VERTEX
  8
0
  5
C2
 10
4.661276
 20
6.861111
 30
0.462772
 70
    64
  0
VERTEX
  8
0
  5
C3
 10
4.908978
 20
8.324074
 30
0.588982
 70
    64
  0
VERTEX
  8
0
  5
C4
 10
4.77687
 20
6.861111
 30
0.52167
 70
    64
  0
VERTEX
  8
0
  5
C5
 10
4.72733
 20
6.416667
 30
0.496428
 70
    64
  0
VERTEX
  8
0
  5
C6
 10
4.562195
 20
5.972222
 30
0.412288
 70
    64
  0
VERTEX
  8
0
  5
C7
 10
4.34752
 20
5.638889
 30
0.302905
 70
    64
  0
VERTEX
  8
0
  5
C8
 10
4.066791
 20
5.342593
 30
0.159867
 70
    64
  0
VERTEX
  8
0
  5
C9
 10
3.934683
 20
4.842593
 30
0.092554
 70
    64
  0
VERTEX
  8
0
  5
CA
 10
3.819089
 20
1.842593
 30
0.033656
 70
    64
  0
VERTEX
  8
0
  5
CB
 10
4.892464
 20
1.694444
 30
0.580568
 70
    64
  0
VERTEX
  8
0
  5
CC
 10
3.753035
 20
1.712963
 30
0.0
 70
    64
  0
VERTEX
  8
0
  5
CD
 10
3.753035
 20
5.972222
 30
0.0
 70
    64
  0
VERTEX
  8
0
  5
CE
 10
4.067907
 20
5.990741
 30
0.228768
 70
    64
  0
VERTEX
  8
0
  5
CF
 10
4.172865
 20
6.027778
 30
0.305024
 70
    64
  0
VERTEX
  8
0
  5
D0
 10
4.30781
 20
6.101852
 30
0.403068
 70
    64
  0
VERTEX
  8
0
  5
D1
 10
4.427761
 20
6.25
 30
0.490217
 70
    64
  0
VERTEX
  8
0
  5
D2
 10
4.502731
 20
6.37963
 30
0.544686
 70
    64
  0
VERTEX
  8
0
  5
D3
 10
4.547713
 20
6.62037
 30
0.577367
 70
    64
  0
VERTEX
  8
0
  5
D4
 10
4.5777
 20
6.861111
 30
0.599155
 70
    64
  0
VERTEX
  8
0
  5
D5
 10
4.802609
 20
8.324074
 30
0.76256
 70
    64
  0
VERTEX
  8
0
  5
D6
 10
4.682658
 20
6.861111
 30
0.675411
 70
    64
  0
VERTEX
  8
0
  5
D7
 10
4.637676
 20
6.416667
 30
0.64273
 70
    64
  0
VERTEX
  8
0
  5
D8
 10
4.487737
 20
5.972222
 30
0.533792
 70
    64
  0
VERTEX
  8
0
  5
D9
 10
4.292816
 20
5.638889
 30
0.392174
 70
    64
  0
VERTEX
  8
0
  5
DA
 10
4.037919
 20
5.342593
 30
0.206981
 70
    64
  0
VERTEX
  8
0
  5
DB
 10
3.917968
 20
4.842593
 30
0.119831
 70
    64
  0
VERTEX
  8
0
  5
DC
 10
3.81301
 20
1.842593
 30
0.043575
 70
    64
  0
VERTEX
  8
0
  5
DD
 10
4.787615
 20
1.694444
 30
0.751667
 70
    64
  0
VERTEX
  8
0
  5
DE
 10
3.753035
 20
1.712963
 30
0.0
 70
    64
  0
VERTEX
  8
0
  5
DF
 10
3.753035
 20
5.972222
 30
0.0
 70
    64
  0
VERTEX
  8
0
  5
E0
 10
4.028243
 20
5.990741
 30
0.275209
 70
    64
  0
VERTEX
  8
0
  5
E1
 10
4.119979
 20
6.027778
 30
0.366945
 70
    64
  0
VERTEX
  8
0
  5
E2
 10
4.237926
 20
6.101852
 30
0.484891
 70
    64
  0
VERTEX
  8
0
  5
E3
 10
4.342767
 20
6.25
 30
0.589733
 70
    64
  0
VERTEX
  8
0
  5
E4
 10
4.408293
 20
6.37963
 30
0.655258
 70
    64
  0
VERTEX
  8
0
  5
E5
 10
4.447609
 20
6.62037
 30
0.694574
 70
    64
  0
VERTEX
  8
0
  5
E6
 10
4.473819
 20
6.861111
 30
0.720784
 70
    64
  0
VERTEX
  8
0
  5
E7
 10
4.670396
 20
8.324074
 30
0.917362
 70
    64
  0
VERTEX
  8
0
  5
E8
 10
4.565555
 20
6.861111
 30
0.81252
 70
    64
  0
VERTEX
  8
0
  5
E9
 10
4.52624
 20
6.416667
 30
0.773205
 70
    64
  0
VERTEX
  8
0
  5
EA
 10
4.395188
 20
5.972222
 30
0.642153
 70
    64
  0
VERTEX
  8
0
  5
EB
 10
4.224821
 20
5.638889
 30
0.471786
 70
    64
  0
VERTEX
  8
0
  5
EC
 10
4.002033
 20
5.342593
 30
0.248998
 70
    64
  0
VERTEX
  8
0
  5
ED
 10
3.897192
 20
4.842593
 30
0.144157
 70
    64
  0
VERTEX
  8
0
  5
EE
 10
3.805455
 20
1.842593
 30
0.052421
 70
    64
  0
VERTEX
  8
0
  5
EF
 10
4.657291
 20
1.694444
 30
0.904257
 70
    64
  0
VERTEX
  8
0
  5
F0
 10
3.753035
 20
1.712963
 30
0.0
 70
    64
  0
VERTEX
  8
0
  5
F1
 10
3.753035
 20
5.972222
 30
0.0
 70
    64
  0
VERTEX
  8
0
  5
F2
 10
3.981803
 20
5.990741
 30
0.314872
 70
    64
  0
VERTEX
  8
0
  5
F3
 10
4.058059
 20
6.027778
 30
0.41983
 70
    64
  0
VERTEX
  8
0
  5
F4
 10
4.156102
 20
6.101852
 30
0.554775
 70
    64
  0
VERTEX
  8
0
  5
F5
 10
4.243252
 20
6.25
 30
0.674726
 70
    64
  0
VERTEX
  8
0
  5
F6
 10
4.297721
 20
6.37963
 30
0.749696
 70
    64
  0
VERTEX
  8
0
  5
F7
 10
4.330402
 20
6.62037
 30
0.794678
 70
    64
  0
VERTEX
  8
0
  5
F8
 10
4.352189
 20
6.861111
 30
0.824666
 70
    64
  0
VERTEX
  8
0
  5
F9
 10
4.515595
 20
8.324074
 30
1.049574
 70
    64
  0
VERTEX
  8
0
  5
FA
 10
4.428446
 20
6.861111
 30
0.929623
 70
    64
  0
VERTEX
  8
0
  5
FB
 10
4.395764
 20
6.416667
 30
0.884641
 70
    64
  0
VERTEX
  8
0
  5
FC
 10
4.286827
 20
5.972222
 30
0.734702
 70
    64
  0
VERTEX
  8
0
  5
FD
 10
4.145209
 20
5.638889
 30
0.539781
 70
    64
  0
VERTEX
  8
0
  5
FE
 10
3.960015
 20
5.342593
 30
0.284884
 70
    64
  0
VERTEX
  8
0
  5
FF
 10
3.872866
 20
4.842593
 30
0.164933
 70
    64
  0
VERTEX
  8
0
  5
100
 10
3.79661
 20
1.842593
 30
0.059976
 70
    64
  0
VERTEX
  8
0
  5
101
 10
4.504702
 20
1.694444
 30
1.034581
 70
    64
  0
VERTEX
  8
0
  5
102
 10
3.753035
 20
1.712963
 30
0.0
 70
    64
  0
VERTEX
  8
0
  5
103
 10
3.753035
 20
5.972222
 30
0.0
 70
    64
  0
VERTEX
  8
0
  5
104
 10
3.92973
 20
5.990741
 30
0.346783
 70
    64
  0
VERTEX
  8
0
  5
105
 10
3.988628
 20
6.027778
 30
0.462377
 70
    64
  0
VERTEX
  8
0
  5
106
 10
4.064354
 20
6.101852
 30
0.610999
 70
    64
  0
VERTEX
  8
0
  5
107
 10
4.131666
 20
6.25
 30
0.743106
 70
    64
  0
VERTEX
  8
0
  5
108
 10
4.173737
 20
6.37963
 30
0.825674
 70
    64
  0
VERTEX
  8
0
  5
109
 10
4.198979
 20
6.62037
 30
0.875214
 70
    64
  0
VERTEX
  8
0
  5
10A
 10
4.215807
 20
6.861111
 30
0.908241
 70
    64
  0
VERTEX
  8
0
  5
10B
 10
4.342017
 20
8.324074
 30
1.155943
 70
    64
  0
VERTEX
  8
0
  5
10C
 10
4.274705
 20
6.861111
 30
1.023835
 70
    64
  0
VERTEX
  8
0
  5
10D
 10
4.249463
 20
6.416667
 30
0.974295
 70
    64
  0
VERTEX
  8
0
  5
10E
 10
4.165323
 20
5.972222
 30
0.80916
 70
    64
  0
VERTEX
  8
0
  5
10F
 10
4.05594
 20
5.638889
 30
0.594485
 70
    64
  0
VERTEX
  8
0
  5
110
 10
3.912901
 20
5.342593
 30
0.313756
 70
    64
  0
VERTEX
  8
0
  5
111
 10
3.845589
 20
4.842593
 30
0.181648
 70
    64
  0
VERTEX
  8
0
  5
112
 10
3.786691
 20
1.842593
 30
0.066054
 70
    64
  0
VERTEX
  8
0
  5
113
 10
4.333603
 20
1.694444
 30
1.13943
 70
    64
  0
VERTEX
  8
0
  5
114
 10
3.753035
 20
1.712963
 30
0.0
 70
    64
  0
VERTEX
  8
0
  5
115
 10
3.753035
 20
5.972222
 30
0.0
 70
    64
  0
VERTEX
  8
0
  5
116
 10
3.873305
 20
5.990741
 30
0.370155
 70
    64
  0
VERTEX
  8
0
  5
117
 10
3.913395
 20
6.027778
 30
0.493539
 70
    64
  0
VERTEX
  8
0
  5
118
 10
3.96494
 20
6.101852
 30
0.652177
 70
    64
  0
VERTEX
  8
0
  5
119
 10
4.010757
 20
6.25
 30
0.793188
 70
    64
  0
VERTEX
  8
0
  5
11A
 10
4.039393
 20
6.37963
 30
0.881321
 70
    64
  0
VERTEX
  8
0
  5
11B
 10
4.056575
 20
6.62037
 30
0.9342
 70
    64
  0
VERTEX
  8
0
  5
11C
 10
4.068029
 20
6.861111
 30
0.969453
 70
    64
  0
VERTEX
  8
0
  5
11D
 10
4.153937
 20
8.324074
 30
1.233849
 70
    64
  0
VERTEX
  8
0
  5
11E
 10
4.108119
 20
6.861111
 30
1.092837
 70
    64
  0
VERTEX
  8
0
  5
11F
 10
4.090938
 20
6.416667
 30
1.039958
 70
    64
  0
VERTEX
  8
0
  5
120
 10
4.033666
 20
5.972222
 30
0.863694
 70
    64
  0
VERTEX
  8
0
  5
121
 10
3.959213
 20
5.638889
 30
0.634551
 70
    64
  0
VERTEX
  8
0
  5
122
 10
3.861851
 20
5.342593
 30
0.334902
 70
    64
  0
VERTEX
  8
0
  5
123
 10
3.816034
 20
4.842593
 30
0.193891
 70
    64
  0
VERTEX
  8
0
  5
124
 10
3.775943
 20
1.842593
 30
0.070506
 70
    64
  0
VERTEX
  8
0
  5
125
 10
4.148209
 20
1.694444
 30
1.216222
 70
    64
  0
VERTEX
  8
0
  5
126
 10
3.753035
 20
1.712963
 30
0.0
 70
    64
  0
VERTEX
  8
0
  5
127
 10
3.753035
 20
5.972222
 30
0.0
 70
    64
  0
VERTEX
  8
0
  5
128
 10
3.81392
 20
5.990741
 30
0.384412
 70
    64
  0
VERTEX
  8
0
  5
129
 10
3.834215
 20
6.027778
 30
0.512549
 70
    64
  0
VERTEX
  8
0
  5
12A
 10
3.860308
 20
6.101852
 30
0.677297
 70
    64
  0
VERTEX
  8
0
  5
12B
 10
3.883502
 20
6.25
 30
0.82374
 70
    64
  0
VERTEX
  8
0
  5
12C
 10
3.897999
 20
6.37963
 30
0.915266
 70
    64
  0
VERTEX
  8
0
  5
12D
 10
3.906697
 20
6.62037
 30
0.970182
 70
    64
  0
VERTEX
  8
0
  5
12E
 10
3.912495
 20
6.861111
 30
1.006793
 70
    64
  0
VERTEX
  8
0
  5
12F
 10
3.955984
 20
8.324074
 30
1.281373
 70
    64
  0
VERTEX
  8
0
  5
130
 10
3.93279
 20
6.861111
 30
1.13493
 70
    64
  0
VERTEX
  8
0
  5
131
 10
3.924092
 20
6.416667
 30
1.080014
 70
    64
  0
VERTEX
  8
0
  5
132
 10
3.895099
 20
5.972222
 30
0.896961
 70
    64
  0
VERTEX
  8
0
  5
133
 10
3.857409
 20
5.638889
 30
0.658992
 70
    64
  0
VERTEX
  8
0
  5
134
 10
3.808121
 20
5.342593
 30
0.347801
 70
    64
  0
VERTEX
  8
0
  5
135
 10
3.784927
 20
4.842593
 30
0.201359
 70
    64
  0
VERTEX
  8
0
  5
136
 10
3.764632
 20
1.842593
 30
0.073221
 70
    64
  0
VERTEX
  8
0
  5
137
 10
3.953085
 20
1.694444
 30
1.263068
 70
    64
  0
VERTEX
  8
0
  5
138
 10
3.753035
 20
1.712963
 30
0.0
 70
    64
  0
VERTEX
  8
0
  5
139
 10
3.753035
 20
5.972222
 30
0.0
 70
    64
  0
VERTEX
  8
0
  5
13A
 10
3.753035
 20
5.990741
 30
0.389204
 70
    64
  0
VERTEX
  8
0
  5
13B
 10
3.753035
 20
6.027778
 30
0.518938
 70
    64
  0
VERTEX
  8
0
  5
13C
 10
3.753035
 20
6.101852
 30
0.68574
 70
    64
  0
VERTEX
  8
0
  5
13D
 10
3.753035
 20
6.25
 30
0.834008
 70
    64
  0
VERTEX
  8
0
  5
13E
 10
3.753035
 20
6.37963
 30
0.926675
 70
    64
  0
VERTEX
  8
0
  5
13F
 10
3.753035
 20
6.62037
 30
0.982276
 70
    64
  0
VERTEX
  8
0
  5
140
 10
3.753035
 20
6.861111
 30
1.019343
 70
    64
  0
VERTEX
  8
0
  5
141
 10
3.753035
 20
8.324074
 30
1.297345
 70
    64
  0
VERTEX
  8
0
  5
142
 10
3.753035
 20
6.861111
 30
1.149077
 70
    64
  0
VERTEX
  8
0
  5
143
 10
3.753035
 20
6.416667
 30
1.093477
 70
    64
  0
VERTEX
  8
0
  5
144
 10
3.753035
 20
5.972222
 30
0.908142
 70
    64
  0
VERTEX
  8
0
  5
145
 10
3.753035
 20
5.638889
 30
0.667206
 70
    64
  0
VERTEX
  8
0
  5
146
 10
3.753035
 20
5.342593
 30
0.352137
 70
    64
  0
VERTEX
  8
0
  5
147
 10
3.753035
 20
4.842593
 30
0.203869
 70
    64
  0
VERTEX
  8
0
  5
148
 10
3.753035
 20
1.842593
 30
0.074134
 70
    64
  0
VERTEX
  8
0
  5
149
 10
3.753035
 20
1.694444
 30
1.278812
 70
    64
  0
VERTEX
  8
0
  5
14A
 10
3.753035
 20
1.712963
 30
0.0
 70
    64
  0
VERTEX
  8
0
  5
14B
 10
3.753035
 20
5.972222
 30
0.0
 70
    64
  0
VERTEX
  8
0
  5
14C
 10
3.69215
 20
5.990741
 30
0.384412
 70
    64
  0
VERTEX
  8
0
  5
14D
 10
3.671855
 20
6.027778
 30
0.512549
 70
    64
  0
VERTEX
  8
0
  5
14E
 10
3.645761
 20
6.101852
 30
0.677297
 70
    64
  0
VERTEX
  8
0
  5
14F
 10
3.622567
 20
6.25
 30
0.82374
 70
    64
  0
VERTEX
  8
0
  5
150
 10
3.608071
 20
6.37963
 30
0.915266
 70
    64
  0
VERTEX
  8
0
  5
151
 10
3.599373
 20
6.62037
 30
0.970182
 70
    64
  0
VERTEX
  8
0
  5
152
 10
3.593574
 20
6.861111
 30
1.006793
 70
    64
  0
VERTEX
  8
0
  5
153
 10
3.550085
 20
8.324074
 30
1.281373
 70
    64
  0
VERTEX
  8
0
  5
154
 10
3.57328
 20
6.861111
 30
1.13493
 70
    64
  0
VERTEX
  8
0
  5
155
 10
3.581977
 20
6.416667
 30
1.080014
 70
    64
  0
VERTEX
  8
0
  5
156
 10
3.61097
 20
5.972222
 30
0.896961
 70
    64
  0
VERTEX
  8
0
  5
157
 10
3.648661
 20
5.638889
 30
0.658992
 70
    64
  0
VERTEX
  8
0
  5
158
 10
3.697949
 20
5.342593
 30
0.347801
 70
    64
  0
VERTEX
  8
0
  5
159
 10
3.721143
 20
4.842593
 30
0.201359
 70
    64
  0
VERTEX
  8
0
  5
15A
 10
3.741438
 20
1.842593
 30
0.073221
 70
    64
  0
VERTEX
  8
0
  5
15B
 10
3.552985
 20
1.694444
 30
1.263068
 70
    64
  0
VERTEX
  8
0
  5
15C
 10
3.753035
 20
1.712963
 30
0.0
 70
    64
  0
VERTEX
  8
0
  5
15D
 10
3.753035
 20
5.972222
 30
0.0
 70
    64
  0
VERTEX
  8
0
  5
15E
 10
3.632764
 20
5.990741
 30
0.370155
 70
    64
  0
VERTEX
  8
0
  5
15F
 10
3.592674
 20
6.027778
 30
0.493539
 70
    64
  0
VERTEX
  8
0
  5
160
 10
3.54113
 20
6.101852
 30
0.652177
 70
    64
  0
VERTEX
  8
0
  5
161
 10
3.495312
 20
6.25
 30
0.793188
 70
    64
  0
VERTEX
  8
0
  5
162
 10
3.466676
 20
6.37963
 30
0.881321
 70
    64
  0
VERTEX
  8
0
  5
163
 10
3.449495
 20
6.62037
 30
0.9342
 70
    64
  0
VERTEX
  8
0
  5
164
 10
3.438041
 20
6.861111
 30
0.969453
 70
    64
  0
VERTEX
  8
0
  5
165
 10
3.352133
 20
8.324074
 30
1.233849
 70
    64
  0
VERTEX
  8
0
  5
166
 10
3.39795
 20
6.861111
 30
1.092837
 70
    64
  0
VERTEX
  8
0
  5
167
 10
3.415132
 20
6.416667
 30
1.039958
 70
    64
  0
VERTEX
  8
0
  5
168
 10
3.472404
 20
5.972222
 30
0.863694
 70
    64
  0
VERTEX
  8
0
  5
169
 10
3.546857
 20
5.638889
 30
0.634551
 70
    64
  0
VERTEX
  8
0
  5
16A
 10
3.644219
 20
5.342593
 30
0.334902
 70
    64
  0
VERTEX
  8
0
  5
16B
 10
3.690036
 20
4.842593
 30
0.193891
 70
    64
  0
VERTEX
  8
0
  5
16C
 10
3.730126
 20
1.842593
 30
0.070506
 70
    64
  0
VERTEX
  8
0
  5
16D
 10
3.35786
 20
1.694444
 30
1.216222
 70
    64
  0
VERTEX
  8
0
  5
16E
 10
3.753035
 20
1.712963
 30
0.0
 70
    64
  0
VERTEX
  8
0
  5
16F
 10
3.753035
 20
5.972222
 30
0.0
 70
    64
  0
VERTEX
  8
0
  5
170
 10
3.57634
 20
5.990741
 30
0.346783
 70
    64
  0
VERTEX
  8
0
  5
171
 10
3.517442
 20
6.027778
 30
0.462377
 70
    64
  0
VERTEX
  8
0
  5
172
 10
3.441715
 20
6.101852
 30
0.610999
 70
    64
  0
VERTEX
  8
0
  5
173
 10
3.374403
 20
6.25
 30
0.743106
 70
    64
  0
VERTEX
  8
0
  5
174
 10
3.332333
 20
6.37963
 30
0.825674
 70
    64
  0
VERTEX
  8
0
  5
175
 10
3.307091
 20
6.62037
 30
0.875214
 70
    64
  0
VERTEX
  8
0
  5
176
 10
3.290263
 20
6.861111
 30
0.908241
 70
    64
  0
VERTEX
  8
0
  5
177
 10
3.164052
 20
8.324074
 30
1.155943
 70
    64
  0
VERTEX
  8
0
  5
178
 10
3.231365
 20
6.861111
 30
1.023835
 70
    64
  0
VERTEX
  8
0
  5
179
 10
3.256607
 20
6.416667
 30
0.974295
 70
    64
  0
VERTEX
  8
0
  5
17A
 10
3.340747
 20
5.972222
 30
0.80916
 70
    64
  0
VERTEX
  8
0
  5
17B
 10
3.45013
 20
5.638889
 30
0.594485
 70
    64
  0
VERTEX
  8
0
  5
17C
 10
3.593168
 20
5.342593
 30
0.313756
 70
    64
  0
VERTEX
  8
0
  5
17D
 10
3.66048
 20
4.842593
 30
0.181648
 70
    64
  0
VERTEX
  8
0
  5
17E
 10
3.719379
 20
1.842593
 30
0.066054
 70
    64
  0
VERTEX
  8
0
  5
17F
 10
3.172466
 20
1.694444
 30
1.13943
 70
    64
  0
VERTEX
  8
0
  5
180
 10
3.753035
 20
1.712963
 30
0.0
 70
    64
  0
VERTEX
  8
0
  5
181
 10
3.753035
 20
5.972222
 30
0.0
 70
    64
  0
VERTEX
  8
0
  5
182
 10
3.524267
 20
5.990741
 30
0.314872
 70
    64
  0
VERTEX
  8
0
  5
183
 10
3.448011
 20
6.027778
 30
0.41983
 70
    64
  0
VERTEX
  8
0
  5
184
 10
3.349967
 20
6.101852
 30
0.554775
 70
    64
  0
VERTEX
  8
0
  5
185
 10
3.262817
 20
6.25
 30
0.674726
 70
    64
  0
VERTEX
  8
0
  5
186
 10
3.208349
 20
6.37963
 30
0.749696
 70
    64
  0
VERTEX
  8
0
  5
187
 10
3.175668
 20
6.62037
 30
0.794678
 70
    64
  0
VERTEX
  8
0
  5
188
 10
3.15388
 20
6.861111
 30
0.824666
 70
    64
  0
VERTEX
  8
0
  5
189
 10
2.990474
 20
8.324074
 30
1.049574
 70
    64
  0
VERTEX
  8
0
  5
18A
 10
3.077624
 20
6.861111
 30
0.929623
 70
    64
  0
VERTEX
  8
0
  5
18B
 10
3.110305
 20
6.416667
 30
0.884641
 70
    64
  0
VERTEX
  8
0
  5
18C
 10
3.219242
 20
5.972222
 30
0.734702
 70
    64
  0
VERTEX
  8
0
  5
18D
 10
3.360861
 20
5.638889
 30
0.539781
 70
    64
  0
VERTEX
  8
0
  5
18E
 10
3.546054
 20
5.342593
 30
0.284884
 70
    64
  0
VERTEX
  8
0
  5
18F
 10
3.633204
 20
4.842593
 30
0.164933
 70
    64
  0
VERTEX
  8
0
  5
190
 10
3.70946
 20
1.842593
 30
0.059976
 70
    64
  0
VERTEX
  8
0
  5
191
 10
3.001368
 20
1.694444
 30
1.034581
 70
    64
  0
VERTEX
  8
0
  5
192
 10
3.753035
 20
1.712963
 30
0.0
 70
    64
  0
VERTEX
  8
0
  5
193
 10
3.753035
 20
5.972222
 30
0.0
 70
    64
  0
VERTEX
  8
0
  5
194
 10
3.477826
 20
5.990741
 30
0.275209
 70
    64
  0
VERTEX
  8
0
  5
195
 10
3.38609
 20
6.027778
 30
0.366945
 70
    64
  0
VERTEX
  8
0
  5
196
 10
3.268144
 20
6.101852
 30
0.484891
 70
    64
  0
VERTEX
  8
0
  5
197
 10
3.163302
 20
6.25
 30
0.589733
 70
    64
  0
VERTEX
  8
0
  5
198
 10
3.097776
 20
6.37963
 30
0.655258
 70
    64
  0
VERTEX
  8
0
  5
199
 10
3.058461
 20
6.62037
 30
0.694574
 70
    64
  0
VERTEX
  8
0
  5
19A
 10
3.032251
 20
6.861111
 30
0.720784
 70
    64
  0
VERTEX
  8
0
  5
19B
 10
2.835673
 20
8.324074
 30
0.917362
 70
    64
  0
VERTEX
  8
0
  5
19C
 10
2.940514
 20
6.861111
 30
0.81252
 70
    64
  0
VERTEX
  8
0
  5
19D
 10
2.97983
 20
6.416667
 30
0.773205
 70
    64
  0
VERTEX
  8
0
  5
19E
 10
3.110882
 20
5.972222
 30
0.642153
 70
    64
  0
VERTEX
  8
0
  5
19F
 10
3.281249
 20
5.638889
 30
0.471786
 70
    64
  0
VERTEX
  8
0
  5
1A0
 10
3.504037
 20
5.342593
 30
0.248998
 70
    64
  0
VERTEX
  8
0
  5
1A1
 10
3.608878
 20
4.842593
 30
0.144157
 70
    64
  0
VERTEX
  8
0
  5
1A2
 10
3.700614
 20
1.842593
 30
0.052421
 70
    64
  0
VERTEX
  8
0
  5
1A3
 10
2.848778
 20
1.694444
 30
0.904257
 70
    64
  0
VERTEX
  8
0
  5
1A4
 10
3.753035
 20
1.712963
 30
0.0
 70
    64
  0
VERTEX
  8
0
  5
1A5
 10
3.753035
 20
5.972222
 30
0.0
 70
    64
  0
VERTEX
  8
0
  5
1A6
 10
3.438162
 20
5.990741
 30
0.228768
 70
    64
  0
VERTEX
  8
0
  5
1A7
 10
3.333205
 20
6.027778
 30
0.305024
 70
    64
  0
VERTEX
  8
0
  5
1A8
 10
3.19826
 20
6.101852
 30
0.403068
 70
    64
  0
VERTEX
  8
0
  5
1A9
 10
3.078308
 20
6.25
 30
0.490217
 70
    64
  0
VERTEX
  8
0
  5
1AA
 10
3.003339
 20
6.37963
 30
0.544686
 70
    64
  0
VERTEX
  8
0
  5
1AB
 10
2.958357
 20
6.62037
 30
0.577367
 70
    64
  0
VERTEX
  8
0
  5
1AC
 10
2.928369
 20
6.861111
 30
0.599155
 70
    64
  0
VERTEX
  8
0
  5
1AD
 10
2.70346
 20
8.324074
 30
0.76256
 70
    64
  0
VERTEX
  8
0
  5
1AE
 10
2.823412
 20
6.861111
 30
0.675411
 70
    64
  0
VERTEX
  8
0
  5
1AF
 10
2.868393
 20
6.416667
 30
0.64273
 70
    64
  0
VERTEX
  8
0
  5
1B0
 10
3.018333
 20
5.972222
 30
0.533792
 70
    64
  0
VERTEX
  8
0
  5
1B1
 10
3.213254
 20
5.638889
 30
0.392174
 70
    64
  0
VERTEX
  8
0
  5
1B2
 10
3.46815
 20
5.342593
 30
0.206981
 70
    64
  0
VERTEX
  8
0
  5
1B3
 10
3.588102
 20
4.842593
 30
0.119831
 70
    64
  0
VERTEX
  8
0
  5
1B4
 10
3.693059
 20
1.842593
 30
0.043575
 70
    64
  0
VERTEX
  8
0
  5
1B5
 10
2.718454
 20
1.694444
 30
0.751667
 70
    64
  0
VERTEX
  8
0
  5
1B6
 10
3.753035
 20
1.712963
 30
0.0
 70
    64
  0
VERTEX
  8
0
  5
1B7
 10
3.753035
 20
5.972222
 30
0.0
 70
    64
  0
VERTEX
  8
0
  5
1B8
 10
3.406252
 20
5.990741
 30
0.176695
 70
    64
  0
VERTEX
  8
0
  5
1B9
 10
3.290658
 20
6.027778
 30
0.235593
 70
    64
  0
VERTEX
  8
0
  5
1BA
 10
3.142036
 20
6.101852
 30
0.311319
 70
    64
  0
VERTEX
  8
0
  5
1BB
 10
3.009928
 20
6.25
 30
0.378632
 70
    64
  0
VERTEX
  8
0
  5
1BC
 10
2.927361
 20
6.37963
 30
0.420702
 70
    64
  0
VERTEX
  8
0
  5
1BD
 10
2.877821
 20
6.62037
 30
0.445944
 70
    64
  0
VERTEX
  8
0
  5
1BE
 10
2.844794
 20
6.861111
 30
0.462772
 70
    64
  0
VERTEX
  8
0
  5
1BF
 10
2.597092
 20
8.324074
 30
0.588982
 70
    64
  0
VERTEX
  8
0
  5
1C0
 10
2.729199
 20
6.861111
 30
0.52167
 70
    64
  0
VERTEX
  8
0
  5
1C1
 10
2.77874
 20
6.416667
 30
0.496428
 70
    64
  0
VERTEX
  8
0
  5
1C2
 10
2.943875
 20
5.972222
 30
0.412288
 70
    64
  0
VERTEX
  8
0
  5
1C3
 10
3.15855
 20
5.638889
 30
0.302905
 70
    64
  0
VERTEX
  8
0
  5
1C4
 10
3.439279
 20
5.342593
 30
0.159867
 70
    64
  0
VERTEX
  8
0
  5
1C5
 10
3.571387
 20
4.842593
 30
0.092554
 70
    64
  0
VERTEX
  8
0
  5
1C6
 10
3.686981
 20
1.842593
 30
0.033656
 70
    64
  0
VERTEX
  8
0
  5
1C7
 10
2.613605
 20
1.694444
 30
0.580568
 70
    64
  0
VERTEX
  8
0
  5
1C8
 10
3.753035
 20
1.712963
 30
0.0
 70
    64
  0
VERTEX
  8
0
  5
1C9
 10
3.753035
 20
5.972222
 30
0.0
 70
    64
  0
VERTEX
  8
0
  5
1CA
 10
3.38288
 20
5.990741
 30
0.120271
 70
    64
  0
VERTEX
  8
0
  5
1CB
 10
3.259495
 20
6.027778
 30
0.160361
 70
    64
  0
VERTEX
  8
0
  5
1CC
 10
3.100858
 20
6.101852
 30
0.211905
 70
    64
  0
VERTEX
  8
0
  5
1CD
 10
2.959846
 20
6.25
 30
0.257723
 70
    64
  0
VERTEX
  8
0
  5
1CE
 10
2.871714
 20
6.37963
 30
0.286358
 70
    64
  0
VERTEX
  8
0
  5
1CF
 10
2.818835
 20
6.62037
 30
0.30354
 70
    64
  0
VERTEX
  8
0
  5
1D0
 10
2.783582
 20
6.861111
 30
0.314994
 70
    64
  0
VERTEX
  8
0
  5
1D1
 10
2.519186
 20
8.324074
 30
0.400902
 70
    64
  0
VERTEX
  8
0
  5
1D2
 10
2.660197
 20
6.861111
 30
0.355084
 70
    64
  0
VERTEX
  8
0
  5
1D3
 10
2.713077
 20
6.416667
 30
0.337903
 70
    64
  0
VERTEX
  8
0
  5
1D4
 10
2.889341
 20
5.972222
 30
0.280631
 70
    64
  0
VERTEX
  8
0
  5
1D5
 10
3.118484
 20
5.638889
 30
0.206178
 70
    64
  0
VERTEX
  8
0
  5
1D6
 10
3.418133
 20
5.342593
 30
0.108816
 70
    64
  0
VERTEX
  8
0
  5
1D7
 10
3.559144
 20
4.842593
 30
0.062999
 70
    64
  0
VERTEX
  8
0
  5
1D8
 10
3.682529
 20
1.842593
 30
0.022909
 70
    64
  0
VERTEX
  8
0
  5
1D9
 10
2.536812
 20
1.694444
 30
0.395175
 70
    64
  0
VERTEX
  8
0
  5
1DA
 10
3.753035
 20
1.712963
 30
0.0
 70
    64
  0
VERTEX
  8
0
  5
1DB
 10
3.753035
 20
5.972222
 30
0.0
 70
    64
  0
VERTEX
  8
0
  5
1DC
 10
3.368623
 20
5.990741
 30
0.060885
 70
    64
  0
VERTEX
  8
0
  5
1DD
 10
3.240486
 20
6.027778
 30
0.08118
 70
    64
  0
VERTEX
  8
0
  5
1DE
 10
3.075738
 20
6.101852
 30
0.107273
 70
    64
  0
VERTEX
  8
0
  5
1DF
 10
2.929295
 20
6.25
 30
0.130468
 70
    64
  0
VERTEX
  8
0
  5
1E0
 10
2.837768
 20
6.37963
 30
0.144964
 70
    64
  0
VERTEX
  8
0
  5
1E1
 10
2.782852
 20
6.62037
 30
0.153662
 70
    64
  0
VERTEX
  8
0
  5
1E2
 10
2.746242
 20
6.861111
 30
0.15946
 70
    64
  0
VERTEX
  8
0
  5
1E3
 10
2.471662
 20
8.324074
 30
0.20295
 70
    64
  0
VERTEX
  8
0
  5
1E4
 10
2.618105
 20
6.861111
 30
0.179755
 70
    64
  0
VERTEX
  8
0
  5
1E5
 10
2.67302
 20
6.416667
 30
0.171057
 70
    64
  0
VERTEX
  8
0
  5
1E6
 10
2.856074
 20
5.972222
 30
0.142065
 70
    64
  0
VERTEX
  8
0
  5
1E7
 10
3.094043
 20
5.638889
 30
0.104374
 70
    64
  0
VERTEX
  8
0
  5
1E8
 10
3.405234
 20
5.342593
 30
0.055086
 70
    64
  0
VERTEX
  8
0
  5
1E9
 10
3.551676
 20
4.842593
 30
0.031892
 70
    64
  0
VERTEX
  8
0
  5
1EA
 10
3.679814
 20
1.842593
 30
0.011597
 70
    64
  0
VERTEX
  8
0
  5
1EB
 10
2.489967
 20
1.694444
 30
0.20005
 70
    64
  0
VERTEX
  8
0
  5
1EC
 10
3.753035
 20
1.712963
 30
0.0
 70
    64
  0
VERTEX
  8
0
  5
1ED
 10
3.753035
 20
5.972222
 30
0.0
 70
    64
  0
VERTEX
  8
0
  5
1EE
 10
3.363831
 20
5.990741
 30
0.0
 70
    64
  0
VERTEX
  8
0
  5
1EF
 10
3.234097
 20
6.027778
 30
0.0
 70
    64
  0
VERTEX
  8
0
  5
1F0
 10
3.067295
 20
6.101852
 30
0.0
 70
    64
  0
VERTEX
  8
0
  5
1F1
 10
2.919027
 20
6.25
 30
0.0
 70
    64
  0
VERTEX
  8
0
  5
1F2
 10
2.82636
 20
6.37963
 30
0.0
 70
    64
  0
VERTEX
  8
0
  5
1F3
 10
2.770759
 20
6.62037
 30
0.0
 70
    64
  0
VERTEX
  8
0
  5
1F4
 10
2.733692
 20
6.861111
 30
0.0
 70
    64
  0
VERTEX
  8
0
  5
1F5
 10
2.455689
 20
8.324074
 30
0.0
 70
    64
  0
VERTEX
  8
0
  5
1F6
 10
2.603957
 20
6.861111
 30
0.0
 70
    64
  0
VERTEX
  8
0
  5
1F7
 10
2.659558
 20
6.416667
 30
0.0
 70
    64
  0
VERTEX
  8
0
  5
1F8
 10
2.844893
 20
5.972222
 30
0.0
 70
    64
  0
VERTEX
  8
0
  5
1F9
 10
3.085829
 20
5.638889
 30
0.0
 70
    64
  0
VERTEX
  8
0
  5
1FA
 10
3.400898
 20
5.342593
 30
0.0
 70
    64
  0
VERTEX
  8
0
  5
1FB
 10
3.549166
 20
4.842593
 30
0.0
 70
    64
  0
VERTEX
  8
0
  5
1FC
 10
3.678901
 20
1.842593
 30
0.0
 70
    64
  0
VERTEX
  8
0
  5
1FD
 10
2.474223
 20
1.694444
 30
0.0
 70
    64
  0
VERTEX
  8
0
  5
1FE
 10
3.753035
 20
1.712963
 30
0.0
 70
    64
  0
VERTEX
  8
0
  5
1FF
 10
3.753035
 20
5.972222
 30
0.0
 70
    64
  0
VERTEX
  8
0
  5
200
 10
3.368623
 20
5.990741
 30
-0.060885
 70
    64
  0
VERTEX
  8
0
  5
201
 10
3.240486
 20
6.027778
 30
-0.08118
 70
    64
  0
VERTEX
  8
0
  5
202
 10
3.075738
 20
6.101852
 30
-0.107273
 70
    64
  0
VERTEX
  8
0
  5
203
 10
2.929295
 20
6.25
 30
-0.130468
 70
    64
  0
VERTEX
  8
0
  5
204
 10
2.837768
 20
6.37963
 30
-0.144964
 70
    64
  0
VERTEX
  8
0
  5
205
 10
2.782852
 20
6.62037
 30
-0.153662
 70
    64
  0
VERTEX
  8
0
  5
206
 10
2.746242
 20
6.861111
 30
-0.15946
 70
    64
  0
VERTEX
  8
0
  5
207
 10
2.471662
 20
8.324074
 30
-0.20295
 70
    64
  0
VERTEX
  8
0
  5
208
 10
2.618105
 20
6.861111
 30
-0.179755
 70
    64
  0
VERTEX
  8
0
  5
209
 10
2.67302
 20
6.416667
 30
-0.171057
 70
    64
  0
VERTEX
  8
0
  5
20A
 10
2.856074
 20
5.972222
 30
-0.142065
 70
    64
  0
VERTEX
  8
0
  5
20B
 10
3.094043
 20
5.638889
 30
-0.104374
 70
    64
  0
VERTEX
  8
0
  5
20C
 10
3.405234
 20
5.342593
 30
-0.055086
 70
    64
  0
VERTEX
  8
0
  5
20D
 10
3.551676
 20
4.842593
 30
-0.031892
 70
    64
  0
VERTEX
  8
0
  5
20E
 10
3.679814
 20
1.842593
 30
-0.011597
 70
    64
  0
VERTEX
  8
0
  5
20F
 10
2.489967
 20
1.694444
 30
-0.20005
 70
    64
  0
VERTEX
  8
0
  5
210
 10
3.753035
 20
1.712963
 30
0.0
 70
    64
  0
VERTEX
  8
0
  5
211
 10
3.753035
 20
5.972222
 30
0.0
 70
    64
  0
VERTEX
  8
0
  5
212
 10
3.38288
 20
5.990741
 30
-0.120271
 70
    64
  0
VERTEX
  8
0
  5
213
 10
3.259495
 20
6.027778
 30
-0.160361
 70
    64
  0
VERTEX
  8
0
  5
214
 10
3.100858
 20
6.101852
 30
-0.211905
 70
    64
  0
VERTEX
  8
0
  5
215
 10
2.959846
 20
6.25
 30
-0.257723
 70
    64
  0
VERTEX
  8
0
  5
216
 10
2.871714
 20
6.37963
 30
-0.286358
 70
    64
  0
VERTEX
  8
0
  5
217
 10
2.818835
 20
6.62037
 30
-0.30354
 70
    64
  0
VERTEX
  8
0
  5
218
 10
2.783582
 20
6.861111
 30
-0.314994
 70
    64
  0
VERTEX
  8
0
  5
219
 10
2.519186
 20
8.324074
 30
-0.400902
 70
    64
  0
VERTEX
  8
0
  5
21A
 10
2.660197
 20
6.861111
 30
-0.355084
 70
    64
  0
VERTEX
  8
0
  5
21B
 10
2.713077
 20
6.416667
 30
-0.337903
 70
    64
  0
VERTEX
  8
0
  5
21C
 10
2.889341
 20
5.972222
 30
-0.280631
 70
    64
  0
VERTEX
  8
0
  5
21D
 10
3.118484
 20
5.638889
 30
-0.206178
 70
    64
  0
VERTEX
  8
0
  5
21E
 10
3.418133
 20
5.342593
 30
-0.108816
 70
    64
  0
VERTEX
  8
0
  5
21F
 10
3.559144
 20
4.842593
 30
-0.062999
 70
    64
  0
VERTEX
  8
0
  5
220
 10
3.682529
 20
1.842593
 30
-0.022909
 70
    64
  0
VERTEX
  8
0
  5
221
 10
2.536812
 20
1.694444
 30
-0.395175
 70
    64
  0
VERTEX
  8
0
  5
222
 10
3.753035
 20
1.712963
 30
0.0
 70
    64
  0
VERTEX
  8
0
  5
223
 10
3.753035
 20
5.972222
 30
0.0
 70
    64
  0
VERTEX
  8
0
  5
224
 10
3.406252
 20
5.990741
 30
-0.176695
 70
    64
  0
VERTEX
  8
0
  5
225
 10
3.290658
 20
6.027778
 30
-0.235593
 70
    64
  0
VERTEX
  8
0
  5
226
 10
3.142036
 20
6.101852
 30
-0.311319
 70
    64
  0
VERTEX
  8
0
  5
227
 10
3.009928
 20
6.25
 30
-0.378632
 70
    64
  0
VERTEX
  8
0
  5
228
 10
2.927361
 20
6.37963
 30
-0.420702
 70
    64
  0
VERTEX
  8
0
  5
229
 10
2.877821
 20
6.62037
 30
-0.445944
 70
    64
  0
VERTEX
  8
0
  5
22A
 10
2.844794
 20
6.861111
 30
-0.462772
 70
    64
  0
VERTEX
  8
0
  5
22B
 10
2.597092
 20
8.324074
 30
-0.588982
 70
    64
  0
VERTEX
  8
0
  5
22C
 10
2.729199
 20
6.861111
 30
-0.52167
 70
    64
  0
VERTEX
  8
0
  5
22D
 10
2.77874
 20
6.416667
 30
-0.496428
 70
    64
  0
VERTEX
  8
0
  5
22E
 10
2.943875
 20
5.972222
 30
-0.412288
 70
    64
  0
VERTEX
  8
0
  5
22F
 10
3.15855
 20
5.638889
 30
-0.302905
 70
    64
  0
VERTEX
  8
0
  5
230
 10
3.439279
 20
5.342593
 30
-0.159867
 70
    64
  0
VERTEX
  8
0
  5
231
 10
3.571387
 20
4.842593
 30
-0.092554
 70
    64
  0
VERTEX
  8
0
  5
232
 10
3.686981
 20
1.842593
 30
-0.033656
 70
    64
  0
VERTEX
  8
0
  5
233
 10
2.613605
 20
1.694444
 30
-0.580568
 70
    64
  0
VERTEX
  8
0
  5
234
 10
3.753035
 20
1.712963
 30
0.0
 70
    64
  0
VERTEX
  8
0
  5
235
 10
3.753035
 20
5.972222
 30
0.0
 70
    64
  0
VERTEX
  8
0
  5
236
 10
3.438162
 20
5.990741
 30
-0.228768
 70
    64
  0
VERTEX
  8
0
  5
237
 10
3.333205
 20
6.027778
 30
-0.305024
 70
    64
  0
VERTEX
  8
0
  5
238
 10
3.19826
 20
6.101852
 30
-0.403068
 70
    64
  0
VERTEX
  8
0
  5
239
 10
3.078308
 20
6.25
 30
-0.490217
 70
    64
  0
VERTEX
  8
0
  5
23A
 10
3.003339
 20
6.37963
 30
-0.544686
 70
    64
  0
VERTEX
  8
0
  5
23B
 10
2.958357
 20
6.62037
 30
-0.577367
 70
    64
  0
VERTEX
  8
0
  5
23C
 10
2.928369
 20
6.861111
 30
-0.599155
 70
    64
  0
VERTEX
  8
0
  5
23D
 10
2.70346
 20
8.324074
 30
-0.76256
 70
    64
  0
VERTEX
  8
0
  5
23E
 10
2.823412
 20
6.861111
 30
-0.675411
 70
    64
  0
VERTEX
  8
0
  5
23F
 10
2.868393
 20
6.416667
 30
-0.64273
 70
    64
  0
VERTEX
  8
0
  5
240
 10
3.018333
 20
5.972222
 30
-0.533792
 70
    64
  0
VERTEX
  8
0
  5
241
 10
3.213254
 20
5.638889
 30
-0.392174
 70
    64
  0
VERTEX
  8
0
  5
242
 10
3.46815
 20
5.342593
 30
-0.206981
 70
    64
  0
VERTEX
  8
0
  5
243
 10
3.588102
 20
4.842593
 30
-0.119831
 70
    64
  0
VERTEX
  8
0
  5
244
 10
3.693059
 20
1.842593
 30
-0.043575
 70
    64
  0
VERTEX
  8
0
  5
245
 10
2.718454
 20
1.694444
 30
-0.751667
 70
    64
  0
VERTEX
  8
0
  5
246
 10
3.753035
 20
1.712963
 30
0.0
 70
    64
  0
VERTEX
  8
0
  5
247
 10
3.753035
 20
5.972222
 30
0.0
 70
    64
  0
VERTEX
  8
0
  5
248
 10
3.477826
 20
5.990741
 30
-0.275209
 70
    64
  0
VERTEX
  8
0
  5
249
 10
3.38609
 20
6.027778
 30
-0.366945
 70
    64
  0
VERTEX
  8
0
  5
24A
 10
3.268144
 20
6.101852
 30
-0.484891
 70
    64
  0
VERTEX
  8
0
  5
24B
 10
3.163302
 20
6.25
 30
-0.589733
 70
    64
  0
VERTEX
  8
0
  5
24C
 10
3.097776
 20
6.37963
 30
-0.655258
 70
    64
  0
VERTEX
  8
0
  5
24D
 10
3.058461
 20
6.62037
 30
-0.694574
 70
    64
  0
VERTEX
  8
0
  5
24E
 10
3.032251
 20
6.861111
 30
-0.720784
 70
    64
  0
VERTEX
  8
0
  5
24F
 10
2.835673
 20
8.324074
 30
-0.917362
 70
    64
  0
VERTEX
  8
0
  5
250
 10
2.940514
 20
6.861111
 30
-0.81252
 70
    64
  0
VERTEX
  8
0
  5
251
 10
2.97983
 20
6.416667
 30
-0.773205
 70
    64
  0
VERTEX
  8
0
  5
252
 10
3.110882
 20
5.972222
 30
-0.642153
 70
    64
  0
VERTEX
  8
0
  5
253
 10
3.281249
 20
5.638889
 30
-0.471786
 70
    64
  0
VERTEX
  8
0
  5
254
 10
3.504037
 20
5.342593
 30
-0.248998
 70
    64
  0
VERTEX
  8
0
  5
255
 10
3.608878
 20
4.842593
 30
-0.144157
 70
    64
  0
VERTEX
  8
0
  5
256
 10
3.700614
 20
1.842593
 30
-0.052421
 70
    64
  0
VERTEX
  8
0
  5
257
 10
2.848778
 20
1.694444
 30
-0.904257
 70
    64
  0
VERTEX
  8
0
  5
258
 10
3.753035
 20
1.712963
 30
0.0
 70
    64
  0
VERTEX
  8
0
  5
259
 10
3.753035
 20
5.972222
 30
0.0
 70
    64
  0
VERTEX
  8
0
  5
25A
 10
3.524267
 20
5.990741
 30
-0.314872
 70
    64
  0
VERTEX
  8
0
  5
25B
 10
3.448011
 20
6.027778
 30
-0.41983
 70
    64
  0
VERTEX
  8
0
  5
25C
 10
3.349967
 20
6.101852
 30
-0.554775
 70
    64
  0
VERTEX
  8
0
  5
25D
 10
3.262817
 20
6.25
 30
-0.674726
 70
    64
  0
VERTEX
  8
0
  5
25E
 10
3.208349
 20
6.37963
 30
-0.749696
 70
    64
  0
VERTEX
  8
0
  5
25F
 10
3.175668
 20
6.62037
 30
-0.794678
 70
    64
  0
VERTEX
  8
0
  5
260
 10
3.15388
 20
6.861111
 30
-0.824666
 70
    64
  0
VERTEX
  8
0
  5
261
 10
2.990474
 20
8.324074
 30
-1.049574
 70
    64
  0
VERTEX
  8
0
  5
262
 10
3.077624
 20
6.861111
 30
-0.929623
 70
    64
  0
VERTEX
  8
0
  5
263
 10
3.110305
 20
6.416667
 30
-0.884641
 70
    64
  0
VERTEX
  8
0
  5
264
 10
3.219242
 20
5.972222
 30
-0.734702
 70
    64
  0
VERTEX
  8
0
  5
265
 10
3.360861
 20
5.638889
 30
-0.539781
 70
    64
  0
VERTEX
  8
0
  5
266
 10
3.546054
 20
5.342593
 30
-0.284884
 70
    64
  0
VERTEX
  8
0
  5
267
 10
3.633204
 20
4.842593
 30
-0.164933
 70
    64
  0
VERTEX
  8
0
  5
268
 10
3.70946
 20
1.842593
 30
-0.059976
 70
    64
  0
VERTEX
  8
0
  5
269
 10
3.001368
 20
1.694444
 30
-1.034581
 70
    64
  0
VERTEX
  8
0
  5
26A
 10
3.753035
 20
1.712963
 30
0.0
 70
    64
  0
VERTEX
  8
0
  5
26B
 10
3.753035
 20
5.972222
 30
0.0
 70
    64
  0
VERTEX
  8
0
  5
26C
 10
3.57634
 20
5.990741
 30
-0.346783
 70
    64
  0
VERTEX
  8
0
  5
26D
 10
3.517442
 20
6.027778
 30
-0.462377
 70
    64
  0
VERTEX
  8
0
  5
26E
 10
3.441715
 20
6.101852
 30
-0.610999
 70
    64
  0
VERTEX
  8
0
  5
26F
 10
3.374403
 20
6.25
 30
-0.743106
 70
    64
  0
VERTEX
  8
0
  5
270
 10
3.332333
 20
6.37963
 30
-0.825674
 70
    64
  0
VERTEX
  8
0
  5
271
 10
3.307091
 20
6.62037
 30
-0.875214
 70
    64
  0
VERTEX
  8
0
  5
272
 10
3.290263
 20
6.861111
 30
-0.908241
 70
    64
  0
VERTEX
  8
0
  5
273
 10
3.164052
 20
8.324074
 30
-1.155943
 70
    64
  0
VERTEX
  8
0
  5
274
 10
3.231365
 20
6.861111
 30
-1.023835
 70
    64
  0
VERTEX
  8
0
  5
275
 10
3.256607
 20
6.416667
 30
-0.974295
 70
    64
  0
VERTEX
  8
0
  5
276
 10
3.340747
 20
5.972222
 30
-0.80916
 70
    64
  0
VERTEX
  8
0
  5
277
 10
3.45013
 20
5.638889
 30
-0.594485
 70
    64
  0
VERTEX
  8
0
  5
278
 10
3.593168
 20
5.342593
 30
-0.313756
 70
    64
  0
VERTEX
  8
0
  5
279
 10
3.66048
 20
4.842593
 30
-0.181648
 70
    64
  0
VERTEX
  8
0
  5
27A
 10
3.719379
 20
1.842593
 30
-0.066054
 70
    64
  0
VERTEX
  8
0
  5
27B
 10
3.172466
 20
1.694444
 30
-1.13943
 70
    64
  0
VERTEX
  8
0
  5
27C
 10
3.753035
 20
1.712963
 30
0.0
 70
    64
  0
VERTEX
  8
0
  5
27D
 10
3.753035
 20
5.972222
 30
0.0
 70
    64
  0
VERTEX
  8
0
  5
27E
 10
3.632764
 20
5.990741
 30
-0.370155
 70
    64
  0
VERTEX
  8
0
  5
27F
 10
3.592674
 20
6.027778
 30
-0.493539
 70
    64
  0
VERTEX
  8
0
  5
280
 10
3.54113
 20
6.101852
 30
-0.652177
 70
    64
  0
VERTEX
  8
0
  5
281
 10
3.495312
 20
6.25
 30
-0.793188
 70
    64
  0
VERTEX
  8
0
  5
282
 10
3.466676
 20
6.37963
 30
-0.881321
 70
    64
  0
VERTEX
  8
0
  5
283
 10
3.449495
 20
6.62037
 30
-0.9342
 70
    64
  0
VERTEX
  8
0
  5
284
 10
3.438041
 20
6.861111
 30
-0.969453
 70
    64
  0
VERTEX
  8
0
  5
285
 10
3.352133
 20
8.324074
 30
-1.233849
 70
    64
  0
VERTEX
  8
0
  5
286
 10
3.39795
 20
6.861111
 30
-1.092837
 70
    64
  0
VERTEX
  8
0
  5
287
 10
3.415132
 20
6.416667
 30
-1.039958
 70
    64
  0
VERTEX
  8
0
  5
288
 10
3.472404
 20
5.972222
 30
-0.863694
 70
    64
  0
VERTEX
  8
0
  5
289
 10
3.546857
 20
5.638889
 30
-0.634551
 70
    64
  0
VERTEX
  8
0
  5
28A
 10
3.644219
 20
5.342593
 30
-0.334902
 70
    64
  0
VERTEX
  8
0
  5
28B
 10
3.690036
 20
4.842593
 30
-0.193891
 70
    64
  0
VERTEX
  8
0
  5
28C
 10
3.730126
 20
1.842593
 30
-0.070506
 70
    64
  0
VERTEX
  8
0
  5
28D
 10
3.35786
 20
1.694444
 30
-1.216222
 70
    64
  0
VERTEX
  8
0
  5
28E
 10
3.753035
 20
1.712963
 30
0.0
 70
    64
  0
VERTEX
  8
0
  5
28F
 10
3.753035
 20
5.972222
 30
0.0
 70
    64
  0
VERTEX
  8
0
  5
290
 10
3.69215
 20
5.990741
 30
-0.384412
 70
    64
  0
VERTEX
  8
0
  5
291
 10
3.671855
 20
6.027778
 30
-0.512549
 70
    64
  0
VERTEX
  8
0
  5
292
 10
3.645761
 20
6.101852
 30
-0.677297
 70
    64
  0
VERTEX
  8
0
  5
293
 10
3.622567
 20
6.25
 30
-0.82374
 70
    64
  0
VERTEX
  8
0
  5
294
 10
3.608071
 20
6.37963
 30
-0.915266
 70
    64
  0
VERTEX
  8
0
  5
295
 10
3.599373
 20
6.62037
 30
-0.970182
 70
    64
  0
VERTEX
  8
0
  5
296
 10
3.593574
 20
6.861111
 30
-1.006793
 70
    64
  0
VERTEX
  8
0
  5
297
 10
3.550085
 20
8.324074
 30
-1.281373
 70
    64
  0
VERTEX
  8
0
  5
298
 10
3.57328
 20
6.861111
 30
-1.13493
 70
    64
  0
VERTEX
  8
0
  5
299
 10
3.581977
 20
6.416667
 30
-1.080014
 70
    64
  0
VERTEX
  8
0
  5
29A
 10
3.61097
 20
5.972222
 30
-0.896961
 70
    64
  0
VERTEX
  8
0
  5
29B
 10
3.648661
 20
5.638889
 30
-0.658992
 70
    64
  0
VERTEX
  8
0
  5
29C
 10
3.697949
 20
5.342593
 30
-0.347801
 70
    64
  0
VERTEX
  8
0
  5
29D
 10
3.721143
 20
4.842593
 30
-0.201359
 70
    64
  0
VERTEX
  8
0
  5
29E
 10
3.741438
 20
1.842593
 30
-0.073221
 70
    64
  0
VERTEX
  8
0
  5
29F
 10
3.552985
 20
1.694444
 30
-1.263068
 70
    64
  0
VERTEX
  8
0
  5
2A0
 10
3.753035
 20
1.712963
 30
0.0
 70
    64
  0
VERTEX
  8
0
  5
2A1
 10
3.753035
 20
5.972222
 30
0.0
 70
    64
  0
VERTEX
  8
0
  5
2A2
 10
3.753035
 20
5.990741
 30
-0.389204
 70
    64
  0
VERTEX
  8
0
  5
2A3
 10
3.753035
 20
6.027778
 30
-0.518938
 70
    64
  0
VERTEX
  8
0
  5
2A4
 10
3.753035
 20
6.101852
 30
-0.68574
 70
    64
  0
VERTEX
  8
0
  5
2A5
 10
3.753035
 20
6.25
 30
-0.834008
 70
    64
  0
VERTEX
  8
0
  5
2A6
 10
3.753035
 20
6.37963
 30
-0.926675
 70
    64
  0
VERTEX
  8
0
  5
2A7
 10
3.753035
 20
6.62037
 30
-0.982276
 70
    64
  0
VERTEX
  8
0
  5
2A8
 10
3.753035
 20
6.861111
 30
-1.019343
 70
    64
  0
VERTEX
  8
0
  5
2A9
 10
3.753035
 20
8.324074
 30
-1.297345
 70
    64
  0
VERTEX
  8
0
  5
2AA
 10
3.753035
 20
6.861111
 30
-1.149077
 70
    64
  0
VERTEX
  8
0
  5
2AB
 10
3.753035
 20
6.416667
 30
-1.093477
 70
    64
  0
VERTEX
  8
0
  5
2AC
 10
3.753035
 20
5.972222
 30
-0.908142
 70
    64
  0
VERTEX
  8
0
  5
2AD
 10
3.753035
 20
5.638889
 30
-0.667206
 70
    64
  0
VERTEX
  8
0
  5
2AE
 10
3.753035
 20
5.342593
 30
-0.352137
 70
    64
  0
VERTEX
  8
0
  5
2AF
 10
3.753035
 20
4.842593
 30
-0.203869
 70
    64
  0
VERTEX
  8
0
  5
2B0
 10
3.753035
 20
1.842593
 30
-0.074134
 70
    64
  0
VERTEX
  8
0
  5
2B1
 10
3.753035
 20
1.694444
 30
-1.278812
 70
    64
  0
VERTEX
  8
0
  5
2B2
 10
3.753035
 20
1.712963
 30
0.0
 70
    64
  0
VERTEX
  8
0
  5
2B3
 10
3.753035
 20
5.972222
 30
0.0
 70
    64
  0
VERTEX
  8
0
  5
2B4
 10
3.81392
 20
5.990741
 30
-0.384412
 70
    64
  0
VERTEX
  8
0
  5
2B5
 10
3.834215
 20
6.027778
 30
-0.512549
 70
    64
  0
VERTEX
  8
0
  5
2B6
 10
3.860308
 20
6.101852
 30
-0.677297
 70
    64
  0
VERTEX
  8
0
  5
2B7
 10
3.883502
 20
6.25
 30
-0.82374
 70
    64
  0
VERTEX
  8
0
  5
2B8
 10
3.897999
 20
6.37963
 30
-0.915266
 70
    64
  0
VERTEX
  8
0
  5
2B9
 10
3.906697
 20
6.62037
 30
-0.970182
 70
    64
  0
VERTEX
  8
0
  5
2BA
 10
3.912495
 20
6.861111
 30
-1.006793
 70
    64
  0
VERTEX
  8
0
  5
2BB
 10
3.955984
 20
8.324074
 30
-1.281373
 70
    64
  0
VERTEX
  8
0
  5
2BC
 10
3.93279
 20
6.861111
 30
-1.13493
 70
    64
  0
VERTEX
  8
0
  5
2BD
 10
3.924092
 20
6.416667
 30
-1.080014
 70
    64
  0
VERTEX
  8
0
  5
2BE
 10
3.895099
 20
5.972222
 30
-0.896961
 70
    64
  0
VERTEX
  8
0
  5
2BF
 10
3.857409
 20
5.638889
 30
-0.658992
 70
    64
  0
VERTEX
  8
0
  5
2C0
 10
3.808121
 20
5.342593
 30
-0.347801
 70
    64
  0
VERTEX
  8
0
  5
2C1
 10
3.784927
 20
4.842593
 30
-0.201359
 70
    64
  0
VERTEX
  8
0
  5
2C2
 10
3.764632
 20
1.842593
 30
-0.073221
 70
    64
  0
VERTEX
  8
0
  5
2C3
 10
3.953085
 20
1.694444
 30
-1.263068
 70
    64
  0
VERTEX
  8
0
  5
2C4
 10
3.753035
 20
1.712963
 30
0.0
 70
    64
  0
VERTEX
  8
0
  5
2C5
 10
3.753035
 20
5.972222
 30
0.0
 70
    64
  0
VERTEX
  8
0
  5
2C6
 10
3.873305
 20
5.990741
 30
-0.370155
 70
    64
  0
VERTEX
  8
0
  5
2C7
 10
3.913395
 20
6.027778
 30
-0.493539
 70
    64
  0
VERTEX
  8
0
  5
2C8
 10
3.96494
 20
6.101852
 30
-0.652177
 70
    64
  0
VERTEX
  8
0
  5
2C9
 10
4.010757
 20
6.25
 30
-0.793188
 70
    64
  0
VERTEX
  8
0
  5
2CA
 10
4.039393
 20
6.37963
 30
-0.881321
 70
    64
  0
VERTEX
  8
0
  5
2CB
 10
4.056575
 20
6.62037
 30
-0.9342
 70
    64
  0
VERTEX
  8
0
  5
2CC
 10
4.068029
 20
6.861111
 30
-0.969453
 70
    64
  0
VERTEX
  8
0
  5
2CD
 10
4.153937
 20
8.324074
 30
-1.233849
 70
    64
  0
VERTEX
  8
0
  5
2CE
 10
4.108119
 20
6.861111
 30
-1.092837
 70
    64
  0
VERTEX
  8
0
  5
2CF
 10
4.090938
 20
6.416667
 30
-1.039958
 70
    64
  0
VERTEX
  8
0
  5
2D0
 10
4.033666
 20
5.972222
 30
-0.863694
 70
    64
  0
VERTEX
  8
0
  5
2D1
 10
3.959213
 20
5.638889
 30
-0.634551
 70
    64
  0
VERTEX
  8
0
  5
2D2
 10
3.861851
 20
5.342593
 30
-0.334902
 70
    64
  0
VERTEX
  8
0
  5
2D3
 10
3.816034
 20
4.842593
 30
-0.193891
 70
    64
  0
VERTEX
  8
0
  5
2D4
 10
3.775943
 20
1.842593
 30
-0.070506
 70
    64
  0
VERTEX
  8
0
  5
2D5
 10
4.148209
 20
1.694444
 30
-1.216222
 70
    64
  0
VERTEX
  8
0
  5
2D6
 10
3.753035
 20
1.712963
 30
0.0
 70
    64
  0
VERTEX
  8
0
  5
2D7
 10
3.753035
 20
5.972222
 30
0.0
 70
    64
  0
VERTEX
  8
0
  5
2D8
 10
3.92973
 20
5.990741
 30
-0.346783
 70
    64
  0
VERTEX
  8
0
  5
2D9
 10
3.988628
 20
6.027778
 30
-0.462377
 70
    64
  0
VERTEX
  8
0
  5
2DA
 10
4.064354
 20
6.101852
 30
-0.610999
 70
    64
  0
VERTEX
  8
0
  5
2DB
 10
4.131666
 20
6.25
 30
-0.743106
 70
    64
  0
VERTEX
  8
0
  5
2DC
 10
4.173737
 20
6.37963
 30
-0.825674
 70
    64
  0
VERTEX
  8
0
  5
2DD
 10
4.198979
 20
6.62037
 30
-0.875214
 70
    64
  0
VERTEX
  8
0
  5
2DE
 10
4.215807
 20
6.861111
 30
-0.908241
 70
    64
  0
VERTEX
  8
0
  5
2DF
 10
4.342017
 20
8.324074
 30
-1.155943
 70
    64
  0
VERTEX
  8
0
  5
2E0
 10
4.274705
 20
6.861111
 30
-1.023835
 70
    64
  0
VERTEX
  8
0
  5
2E1
 10
4.249463
 20
6.416667
 30
-0.974295
 70
    64
  0
VERTEX
  8
0
  5
2E2
 10
4.165323
 20
5.972222
 30
-0.80916
 70
    64
  0
VERTEX
  8
0
  5
2E3
 10
4.05594
 20
5.638889
 30
-0.594485
 70
    64
  0
VERTEX
  8
0
  5
2E4
 10
3.912901
 20
5.342593
 30
-0.313756
 70
    64
  0
VERTEX
  8
0
  5
2E5
 10
3.845589
 20
4.842593
 30
-0.181648
 70
    64
  0
VERTEX
  8
0
  5
2E6
 10
3.786691
 20
1.842593
 30
-0.066054
 70
    64
  0
VERTEX
  8
0
  5
2E7
 10
4.333603
 20
1.694444
 30
-1.13943
 70
    64
  0
VERTEX
  8
0
  5
2E8
 10
3.753035
 20
1.712963
 30
0.0
 70
    64
  0
VERTEX
  8
0
  5
2E9
 10
3.753035
 20
5.972222
 30
0.0
 70
    64
  0
VERTEX
  8
0
  5
2EA
 10
3.981803
 20
5.990741
 30
-0.314872
 70
    64
  0
VERTEX
  8
0
  5
2EB
 10
4.058059
 20
6.027778
 30
-0.41983
 70
    64
  0
VERTEX
  8
0
  5
2EC
 10
4.156102
 20
6.101852
 30
-0.554775
 70
    64
  0
VERTEX
  8
0
  5
2ED
 10
4.243252
 20
6.25
 30
-0.674726
 70
    64
  0
VERTEX
  8
0
  5
2EE
 10
4.297721
 20
6.37963
 30
-0.749696
 70
    64
  0
VERTEX
  8
0
  5
2EF
 10
4.330402
 20
6.62037
 30
-0.794678
 70
    64
  0
VERTEX
  8
0
  5
2F0
 10
4.352189
 20
6.861111
 30
-0.824666
 70
    64
  0
VERTEX
  8
0
  5
2F1
 10
4.515595
 20
8.324074
 30
-1.049574
 70
    64
  0
VERTEX
  8
0
  5
2F2
 10
4.428446
 20
6.861111
 30
-0.929623
 70
    64
  0
VERTEX
  8
0
  5
2F3
 10
4.395764
 20
6.416667
 30
-0.884641
 70
    64
  0
VERTEX
  8
0
  5
2F4
 10
4.286827
 20
5.972222
 30
-0.734702
 70
    64
  0
VERTEX
  8
0
  5
2F5
 10
4.145209
 20
5.638889
 30
-0.539781
 70
    64
  0
VERTEX
  8
0
  5
2F6
 10
3.960015
 20
5.342593
 30
-0.284884
 70
    64
  0
VERTEX
  8
0
  5
2F7
 10
3.872866
 20
4.842593
 30
-0.164933
 70
    64
  0
VERTEX
  8
0
  5
2F8
 10
3.79661
 20
1.842593
 30
-0.059976
 70
    64
  0
VERTEX
  8
0
  5
2F9
 10
4.504702
 20
1.694444
 30
-1.034581
 70
    64
  0
VERTEX
  8
0
  5
2FA
 10
3.753035
 20
1.712963
 30
0.0
 70
    64
  0
VERTEX
  8
0
  5
2FB
 10
3.753035
 20
5.972222
 30
0.0
 70
    64
  0
VERTEX
  8
0
  5
2FC
 10
4.028243
 20
5.990741
 30
-0.275209
 70
    64
  0
VERTEX
  8
0
  5
2FD
 10
4.119979
 20
6.027778
 30
-0.366945
 70
    64
  0
VERTEX
  8
0
  5
2FE
 10
4.237926
 20
6.101852
 30
-0.484891
 70
    64
  0
VERTEX
  8
0
  5
2FF
 10
4.342767
 20
6.25
 30
-0.589733
 70
    64
  0
VERTEX
  8
0
  5
300
 10
4.408293
 20
6.37963
 30
-0.655258
 70
    64
  0
VERTEX
  8
0
  5
301
 10
4.447609
 20
6.62037
 30
-0.694574
 70
    64
  0
VERTEX
  8
0
  5
302
 10
4.473819
 20
6.861111
 30
-0.720784
 70
    64
  0
VERTEX
  8
0
  5
303
 10
4.670396
 20
8.324074
 30
-0.917362
 70
    64
  0
VERTEX
  8
0
  5
304
 10
4.565555
 20
6.861111
 30
-0.81252
 70
    64
  0
VERTEX
  8
0
  5
305
 10
4.52624
 20
6.416667
 30
-0.773205
 70
    64
  0
VERTEX
  8
0
  5
306
 10
4.395188
 20
5.972222
 30
-0.642153
 70
    64
  0
VERTEX
  8
0
  5
307
 10
4.224821
 20
5.638889
 30
-0.471786
 70
    64
  0
VERTEX
  8
0
  5
308
 10
4.002033
 20
5.342593
 30
-0.248998
 70
    64
  0
VERTEX
  8
0
  5
309
 10
3.897192
 20
4.842593
 30
-0.144157
 70
    64
  0
VERTEX
  8
0
  5
30A
 10
3.805455
 20
1.842593
 30
-0.052421
 70
    64
  0
VERTEX
  8
0
  5
30B
 10
4.657291
 20
1.694444
 30
-0.904257
 70
    64
  0
VERTEX
  8
0
  5
30C
 10
3.753035
 20
1.712963
 30
0.0
 70
    64
  0
VERTEX
  8
0
  5
30D
 10
3.753035
 20
5.972222
 30
0.0
 70
    64
  0
VERTEX
  8
0
  5
30E
 10
4.067907
 20
5.990741
 30
-0.228768
 70
    64
  0
VERTEX
  8
0
  5
30F
 10
4.172865
 20
6.027778
 30
-0.305024
 70
    64
  0
VERTEX
  8
0
  5
310
 10
4.30781
 20
6.101852
 30
-0.403068
 70
    64
  0
VERTEX
  8
0
  5
311
 10
4.427761
 20
6.25
 30
-0.490217
 70
    64
  0
VERTEX
  8
0
  5
312
 10
4.502731
 20
6.37963
 30
-0.544686
 70
    64
  0
VERTEX
  8
0
  5
313
 10
4.547713
 20
6.62037
 30
-0.577367
 70
    64
  0
VERTEX
  8
0
  5
314
 10
4.5777
 20
6.861111
 30
-0.599155
 70
    64
  0
VERTEX
  8
0
  5
315
 10
4.802609
 20
8.324074
 30
-0.76256
 70
    64
  0
VERTEX
  8
0
  5
316
 10
4.682658
 20
6.861111
 30
-0.675411
 70
    64
  0
VERTEX
  8
0
  5
317
 10
4.637676
 20
6.416667
 30
-0.64273
 70
    64
  0
VERTEX
  8
0
  5
318
 10
4.487737
 20
5.972222
 30
-0.533792
 70
    64
  0
VERTEX
  8
0
  5
319
 10
4.292816
 20
5.638889
 30
-0.392174
 70
    64
  0
VERTEX
  8
0
  5
31A
 10
4.037919
 20
5.342593
 30
-0.206981
 70
    64
  0
VERTEX
  8
0
  5
31B
 10
3.917968
 20
4.842593
 30
-0.119831
 70
    64
  0
VERTEX
  8
0
  5
31C
 10
3.81301
 20
1.842593
 30
-0.043575
 70
    64
  0
VERTEX
  8
0
  5
31D
 10
4.787615
 20
1.694444
 30
-0.751667
 70
    64
  0
VERTEX
  8
0
  5
31E
 10
3.753035
 20
1.712963
 30
0.0
 70
    64
  0
VERTEX
  8
0
  5
31F
 10
3.753035
 20
5.972222
 30
0.0
 70
    64
  0
VERTEX
  8
0
  5
320
 10
4.099818
 20
5.990741
 30
-0.176695
 70
    64
  0
VERTEX
  8
0
  5
321
 10
4.215412
 20
6.027778
 30
-0.235593
 70
    64
  0
VERTEX
  8
0
  5
322
 10
4.364033
 20
6.101852
 30
-0.311319
 70
    64
  0
VERTEX
  8
0
  5
323
 10
4.496141
 20
6.25
 30
-0.378632
 70
    64
  0
VERTEX
  8
0
  5
324
 10
4.578709
 20
6.37963
 30
-0.420702
 70
    64
  0
VERTEX
  8
0
  5
325
 10
4.628249
 20
6.62037
 30
-0.445944
 70
    64
  0
VERTEX
  8
0
  5
326
 10
4.661276
 20
6.861111
 30
-0.462772
 70
    64
  0
VERTEX
  8
0
  5
327
 10
4.908978
 20
8.324074
 30
-0.588982
 70
    64
  0
VERTEX
  8
0
  5
328
 10
4.77687
 20
6.861111
 30
-0.52167
 70
    64
  0
VERTEX
  8
0
  5
329
 10
4.72733
 20
6.416667
 30
-0.496428
 70
    64
  0
VERTEX
  8
0
  5
32A
 10
4.562195
 20
5.972222
 30
-0.412288
 70
    64
  0
VERTEX
  8
0
  5
32B
 10
4.34752
 20
5.638889
 30
-0.302905
 70
    64
  0
VERTEX
  8
0
  5
32C
 10
4.066791
 20
5.342593
 30
-0.159867
 70
    64
  0
VERTEX
  8
0
  5
32D
 10
3.934683
 20
4.842593
 30
-0.092554
 70
    64
  0
VERTEX
  8
0
  5
32E
 10
3.819089
 20
1.842593
 30
-0.033656
 70
    64
  0
VERTEX
  8
0
  5
32F
 10
4.892464
 20
1.694444
 30
-0.580568
 70
    64
  0
VERTEX
  8
0
  5
330
 10
3.753035
 20
1.712963
 30
0.0
 70
    64
  0
VERTEX
  8
0
  5
331
 10
3.753035
 20
5.972222
 30
0.0
 70
    64
  0
VERTEX
  8
0
  5
332
 10
4.123189
 20
5.990741
 30
-0.120271
 70
    64
  0
VERTEX
  8
0
  5
333
 10
4.246574
 20
6.027778
 30
-0.160361
 70
    64
  0
VERTEX
  8
0
  5
334
 10
4.405212
 20
6.101852
 30
-0.211905
 70
    64
  0
VERTEX
  8
0
  5
335
 10
4.546223
 20
6.25
 30
-0.257723
 70
    64
  0
VERTEX
  8
0
  5
336
 10
4.634355
 20
6.37963
 30
-0.286358
 70
    64
  0
VERTEX
  8
0
  5
337
 10
4.687235
 20
6.62037
 30
-0.30354
 70
    64
  0
VERTEX
  8
0
  5
338
 10
4.722487
 20
6.861111
 30
-0.314994
 70
    64
  0
VERTEX
  8
0
  5
339
 10
4.986884
 20
8.324074
 30
-0.400902
 70
    64
  0
VERTEX
  8
0
  5
33A
 10
4.845872
 20
6.861111
 30
-0.355084
 70
    64
  0
VERTEX
  8
0
  5
33B
 10
4.792993
 20
6.416667
 30
-0.337903
 70
    64
  0
VERTEX
  8
0
  5
33C
 10
4.616729
 20
5.972222
 30
-0.280631
 70
    64
  0
VERTEX
  8
0
  5
33D
 10
4.387586
 20
5.638889
 30
-0.206178
 70
    64
  0
VERTEX
  8
0
  5
33E
 10
4.087937
 20
5.342593
 30
-0.108816
 70
    64
  0
VERTEX
  8
0
  5
33F
 10
3.946925
 20
4.842593
 30
-0.062999
 70
    64
  0
VERTEX
  8
0
  5
340
 10
3.82354
 20
1.842593
 30
-0.022909
 70
    64
  0
VERTEX
  8
0
  5
341
 10
4.969257
 20
1.694444
 30
-0.395175
 70
    64
  0
VERTEX
  8
0
  5
342
 10
3.753035
 20
1.712963
 30
0.0
 70
    64
  0
VERTEX
  8
0
  5
343
 10
3.753035
 20
5.972222
 30
0.0
 70
    64
  0
VERTEX
  8
0
  5
344
 10
4.137447
 20
5.990741
 30
-0.060885
 70
    64
  0
VERTEX
  8
0
  5
345
 10
4.265584
 20
6.027778
 30
-0.08118
 70
    64
  0
VERTEX
  8
0
  5
346
 10
4.430332
 20
6.101852
 30
-0.107273
 70
    64
  0
VERTEX
  8
0
  5
347
 10
4.576774
 20
6.25
 30
-0.130468
 70
    64
  0
VERTEX
  8
0
  5
348
 10
4.668301
 20
6.37963
 30
-0.144964
 70
    64
  0
VERTEX
  8
0
  5
349
 10
4.723217
 20
6.62037
 30
-0.153662
 70
    64
  0
VERTEX
  8
0
  5
34A
 10
4.759828
 20
6.861111
 30
-0.15946
 70
    64
  0
VERTEX
  8
0
  5
34B
 10
5.034408
 20
8.324074
 30
-0.20295
 70
    64
  0
VERTEX
  8
0
  5
34C
 10
4.887965
 20
6.861111
 30
-0.179755
 70
    64
  0
VERTEX
  8
0
  5
34D
 10
4.833049
 20
6.416667
 30
-0.171057
 70
    64
  0
VERTEX
  8
0
  5
34E
 10
4.649996
 20
5.972222
 30
-0.142065
 70
    64
  0
VERTEX
  8
0
  5
34F
 10
4.412027
 20
5.638889
 30
-0.104374
 70
    64
  0
VERTEX
  8
0
  5
350
 10
4.100836
 20
5.342593
 30
-0.055086
 70
    64
  0
VERTEX
  8
0
  5
351
 10
3.954393
 20
4.842593
 30
-0.031892
 70
    64
  0
VERTEX
  8
0
  5
352
 10
3.826256
 20
1.842593
 30
-0.011597
 70
    64
  0
VERTEX
  8
0
  5
353
 10
5.016102
 20
1.694444
 30
-0.20005
 70
    64
  0
VERTEX
  8
0
  5
354
 10
3.753035
 20
1.712963
 30
0.0
 70
    64
  0
SEQEND
  8
0
  5
355
  0
INSERT
  8
ASHADE
 62
     1
  5
358
  2
AVE_RENDER
 10
0.0
 20
0.0
 30
0.0
1001
AVE_RENDER
1002
{
1070
     2
1000
Pref
1070
    30
1070
    20
1070
     0
1070
     0
1000

1070
    10
1070
     0
1070
    30
1040
1.0
1070
     1
1040
0.3
1040
0.7
1040
0.0
1040
10.0
1010
-1.0
1020
-1.0
1030
-1.0
1040
0.3
1070
    49
1002
}
  0
INSERT
  8
ASHADE
 62
     3
  5
359
  2
AVE_RENDER
 10
0.0
 20
0.0
 30
0.0
1001
AVE_RENDER
1002
{
1070
     0
1000
Full Opt
1070
     0
1070
     1
1070
     1
1070
     1
1070
     0
1070
     0
1070
     0
1070
     1
1070
     1
1040
0.0001
1040
0.0001
1002
}
  0
INSERT
  8
ASHADE
 62
     4
  5
35A
  2
AVE_RENDER
 10
0.0
 20
0.0
 30
0.0
1001
AVE_RENDER
1002
{
1070
     0
1000
Quick Opt
1070
     0
1070
     1
1070
     1
1070
     1
1070
     0
1070
     0
1070
     1
1002
}
  0
ENDSEC
  0
EOF
